<?xml version="1.0" encoding="UTF-8" standalone="no"?>
<!-- Created with Inkscape (http://www.inkscape.org/) -->
<svg
   xmlns:dc="http://purl.org/dc/elements/1.1/"
   xmlns:cc="http://web.resource.org/cc/"
   xmlns:rdf="http://www.w3.org/1999/02/22-rdf-syntax-ns#"
   xmlns:svg="http://www.w3.org/2000/svg"
   xmlns="http://www.w3.org/2000/svg"
   xmlns:sodipodi="http://sodipodi.sourceforge.net/DTD/sodipodi-0.dtd"
   xmlns:inkscape="http://www.inkscape.org/namespaces/inkscape"
   width="120mm"
   height="60mm"
   id="svg2184"
   sodipodi:version="0.32"
   inkscape:version="0.45.1"
   sodipodi:docbase="/home/mag"
   sodipodi:docname="openinkpot-logo.svg"
   inkscape:output_extension="org.inkscape.output.svg.inkscape">
  <defs
     id="defs3" />
  <sodipodi:namedview
     id="base"
     pagecolor="#ffffff"
     bordercolor="#666666"
     borderopacity="1.0"
     inkscape:pageopacity="0.0"
     inkscape:pageshadow="2"
     inkscape:zoom="1.2"
     inkscape:cx="160"
     inkscape:cy="90"
     inkscape:document-units="mm"
     inkscape:current-layer="layer1"
     inkscape:window-width="958"
     inkscape:window-height="1183"
     inkscape:window-x="0"
     inkscape:window-y="15" />
  <metadata
     id="metadata2188">
    <rdf:RDF>
      <cc:Work
         rdf:about="">
        <dc:format>image/svg+xml</dc:format>
        <dc:type
           rdf:resource="http://purl.org/dc/dcmitype/StillImage" />
        <dc:title>OpenInkpot logo</dc:title>
        <dc:creator>
          <cc:Agent>
            <dc:title>Vladimir Prohorenkov &lt;prohorenkov@gmail.com&gt;</dc:title>
          </cc:Agent>
        </dc:creator>
        <cc:license
           rdf:resource="http://creativecommons.org/licenses/by-sa/2.5/" />
      </cc:Work>
      <cc:License
         rdf:about="http://creativecommons.org/licenses/by-sa/2.5/">
        <cc:permits
           rdf:resource="http://web.resource.org/cc/Reproduction" />
        <cc:permits
           rdf:resource="http://web.resource.org/cc/Distribution" />
        <cc:requires
           rdf:resource="http://web.resource.org/cc/Notice" />
        <cc:requires
           rdf:resource="http://web.resource.org/cc/Attribution" />
        <cc:permits
           rdf:resource="http://web.resource.org/cc/DerivativeWorks" />
        <cc:requires
           rdf:resource="http://web.resource.org/cc/ShareAlike" />
      </cc:License>
    </rdf:RDF>
  </metadata>
  <g
     inkscape:label="Layer 1"
     inkscape:groupmode="layer"
     id="layer1">
    <g
       style="fill:#8b001a;fill-rule:nonzero;stroke:none;stroke-width:1;stroke-linecap:butt;stroke-linejoin:miter;stroke-dasharray:none"
       id="g4"
       transform="matrix(1.2146052,0,0,1.2145775,0,-1.1833047e-5)">
      <path
         d="M 350.07,165.039 C 350.07,170.539 345.57,175.039 340.07,175.039 C 340.07,175.039 10,175.039 10,175.039 C 4.5,175.039 0,170.539 0,165.039 C 0,165.039 0,10 0,10 C 0,4.5 4.5,0 10,0 C 10,0 340.07,0 340.07,0 C 345.57,0 350.07,4.5 350.07,10 C 350.07,10 350.07,165.039 350.07,165.039 z "
         id="path6" />
    </g>
    <g
       transform="matrix(1.2146052,0,0,1.2145775,85.2976,32.5563)"
       style="fill:#ffffff;fill-rule:nonzero;stroke:none;stroke-width:1;stroke-linecap:butt;stroke-linejoin:miter;stroke-dasharray:none"
       id="g8">
      <path
         d="M 8.8046,25.1299 C 8.8046,35.6182 14.8408,43.5333 23.3496,43.5333 C 31.6604,43.5333 37.8924,35.7168 37.8924,24.9317 C 37.8924,16.8194 33.8354,6.5303 23.5468,6.5303 C 13.2578,6.5303 8.8046,16.0274 8.8046,25.1299 z M 46.7964,24.6348 C 46.7964,42.3458 34.5294,50.0625 22.9541,50.0625 C 9.9922,50.0625 0,40.5645 0,25.4268 C 0,9.3995 10.4873,0 23.7451,0 C 37.4984,0 46.7964,9.9932 46.7964,24.6348 z "
         id="path10" />
    </g>
    <g
       transform="matrix(1.2146052,0,0,1.2145775,219.64922,32.5563)"
       style="fill:#ffffff;fill-rule:nonzero;stroke:none;stroke-width:1;stroke-linecap:butt;stroke-linejoin:miter;stroke-dasharray:none"
       id="g12">
      <path
         d="M 33.837,20.3809 C 33.935,14.8399 31.56,6.2334 21.765,6.2334 C 12.961,6.2334 9.101,14.3458 8.41,20.3809 C 8.41,20.3809 33.837,20.3809 33.837,20.3809 z M 8.31,26.6143 C 8.509,38.3877 16.027,43.2354 24.733,43.2354 C 30.968,43.2354 34.726,42.1475 37.991,40.7627 C 37.991,40.7627 39.475,46.9952 39.475,46.9952 C 36.408,48.3799 31.166,50.0625 23.548,50.0625 C 8.806,50.0625 0,40.2676 0,25.8223 C 0,11.378 8.509,0 22.459,0 C 38.092,0 42.247,13.752 42.247,22.5577 C 42.247,24.3389 42.049,25.7237 41.949,26.6143 C 41.949,26.6143 8.31,26.6143 8.31,26.6143 z "
         id="path14" />
    </g>
    <g
       transform="matrix(1.2146052,0,0,1.2145775,283.58118,32.5563)"
       style="fill:#ffffff;fill-rule:nonzero;stroke:none;stroke-width:1;stroke-linecap:butt;stroke-linejoin:miter;stroke-dasharray:none"
       id="g16">
      <path
         d="M 0.394,14.0489 C 0.394,9.1016 0.295,5.0459 0,1.0879 C 0,1.0879 7.715,1.0879 7.715,1.0879 C 7.715,1.0879 8.212,9.003 8.212,9.003 C 8.212,9.003 8.409,9.003 8.409,9.003 C 10.784,4.4522 16.324,0 24.239,0 C 30.868,0 41.158,3.9581 41.158,20.3809 C 41.158,20.3809 41.158,48.9747 41.158,48.9747 C 41.158,48.9747 32.451,48.9747 32.451,48.9747 C 32.451,48.9747 32.451,21.3711 32.451,21.3711 C 32.451,13.6534 29.582,7.2217 21.37,7.2217 C 15.63,7.2217 11.178,11.2793 9.695,16.127 C 9.298,17.2149 9.1,18.6993 9.1,20.1836 C 9.1,20.1836 9.1,48.9747 9.1,48.9747 C 9.1,48.9747 0.394,48.9747 0.394,48.9747 C 0.394,48.9747 0.394,14.0489 0.394,14.0489 z "
         id="path18" />
    </g>
    <g
       transform="matrix(1.2146052,0,0,1.2145775,59.1729,93.278127)"
       style="fill:#ffffff;fill-rule:nonzero;stroke:none;stroke-width:1;stroke-linecap:butt;stroke-linejoin:miter;stroke-dasharray:none"
       id="g20">
      <path
         d="M 8.6074,0 C 8.6074,0 8.6074,66.6842 8.6074,66.6842 C 8.6074,66.6842 0,66.6842 0,66.6842 C 0,66.6842 0,0 0,0 C 0,0 8.6074,0 8.6074,0 z "
         id="path22" />
    </g>
    <g
       transform="matrix(1.2146052,0,0,1.2145775,88.25346,114.78829)"
       style="fill:#ffffff;fill-rule:nonzero;stroke:none;stroke-width:1;stroke-linecap:butt;stroke-linejoin:miter;stroke-dasharray:none"
       id="g24">
      <path
         d="M 0.3955,14.0502 C 0.3955,9.1022 0.2968,5.0462 0,1.0888 C 0,1.0888 7.7168,1.0888 7.7168,1.0888 C 7.7168,1.0888 8.2119,9.0042 8.2119,9.0042 C 8.2119,9.0042 8.4091,9.0042 8.4091,9.0042 C 10.7841,4.4521 16.3252,0 24.2402,0 C 30.8678,0 41.1578,3.958 41.1578,20.3822 C 41.1578,20.3822 41.1578,48.9742 41.1578,48.9742 C 41.1578,48.9742 32.4508,48.9742 32.4508,48.9742 C 32.4508,48.9742 32.4508,21.3712 32.4508,21.3712 C 32.4508,13.6532 29.5818,7.2222 21.371,7.2222 C 15.6328,7.2222 11.1796,11.2792 9.6953,16.1272 C 9.2998,17.2162 9.1025,18.6982 9.1025,20.1832 C 9.1025,20.1832 9.1025,48.9742 9.1025,48.9742 C 9.1025,48.9742 0.3955,48.9742 0.3955,48.9742 C 0.3955,48.9742 0.3955,14.0502 0.3955,14.0502 z "
         id="path26" />
    </g>
    <g
       transform="matrix(1.2146052,0,0,1.2145775,154.99699,32.5563)"
       style="fill:#ffffff;fill-rule:nonzero;stroke:none;stroke-width:1;stroke-linecap:butt;stroke-linejoin:miter;stroke-dasharray:none"
       id="g28">
      <path
         d="M 9.003,21.2715 C 9.003,20.084 9.3,18.7979 9.598,17.71 C 11.28,11.1797 16.82,6.9258 22.756,6.9258 C 31.957,6.9258 37.003,15.1377 37.003,24.7344 C 37.003,35.7168 31.66,43.2354 22.459,43.2354 C 16.227,43.2354 10.983,39.0801 9.4,33.045 C 9.201,31.9571 9.003,30.7696 9.003,29.4834 C 9.003,29.4834 9.003,21.2715 9.003,21.2715 z M 37.952,68.793 C 37.952,68.793 27.465,68.793 27.465,68.793 C 27.465,68.793 13.415,85.3154 13.415,85.3154 C 12.031,86.9974 10.349,89.0754 9.161,90.7564 C 9.161,90.7564 8.963,90.7564 8.963,90.7564 C 8.963,90.7564 9.003,68.5635 9.003,68.5635 C 9.003,68.5635 9.003,42.543 9.003,42.543 C 9.003,42.543 9.201,42.543 9.201,42.543 C 12.071,47.292 17.612,50.0625 23.944,50.0625 C 35.223,50.0625 45.709,41.5538 45.709,24.3389 C 45.709,9.795 37.003,0 25.427,0 C 17.612,0 11.971,3.4629 8.41,9.2999 C 8.41,9.2999 8.212,9.2999 8.212,9.2999 C 8.212,9.2999 7.817,1.0879 7.817,1.0879 C 7.817,1.0879 0,1.0879 0,1.0879 C 0.199,5.6387 0.397,10.586 0.397,16.7208 C 0.397,16.7208 0.357,116.678 0.357,116.678 C 0.357,116.678 8.963,116.678 8.963,116.678 C 8.963,116.678 8.963,98.6724 8.963,98.6724 C 8.963,98.6724 13.415,93.7254 13.415,93.7254 C 13.415,93.7254 29.939,116.678 29.939,116.678 C 29.939,116.678 40.525,116.678 40.525,116.678 C 40.525,116.678 19.451,88.4814 19.451,88.4814 C 19.451,88.4814 37.952,68.793 37.952,68.793 z "
         id="path30" />
    </g>
    <g
       transform="matrix(1.2146052,0,0,1.2145775,213.3515,114.78829)"
       style="fill:#ffffff;fill-rule:nonzero;stroke:none;stroke-width:1;stroke-linecap:butt;stroke-linejoin:miter;stroke-dasharray:none"
       id="g32">
      <path
         d="M 9.004,29.4832 C 9.004,30.7692 9.201,31.9572 9.401,33.0462 C 10.984,39.0812 16.227,43.2362 22.459,43.2362 C 31.66,43.2362 37.003,35.7172 37.003,24.7342 C 37.003,15.1372 31.957,6.9262 22.756,6.9262 C 16.821,6.9262 11.28,11.1802 9.598,17.7102 C 9.301,18.7992 9.004,20.0852 9.004,21.2712 C 9.004,21.2712 9.004,29.4832 9.004,29.4832 z M 0.397,16.7202 C 0.397,10.5872 0.199,5.6392 0,1.0888 C 0,1.0888 7.818,1.0888 7.818,1.0888 C 7.818,1.0888 8.212,9.3012 8.212,9.3012 C 8.212,9.3012 8.41,9.3012 8.41,9.3012 C 11.973,3.4628 17.612,0 25.427,0 C 37.003,0 45.709,9.7952 45.709,24.3392 C 45.709,41.5542 35.223,50.0622 23.945,50.0622 C 17.612,50.0622 12.072,47.2932 9.201,42.5442 C 9.201,42.5442 9.004,42.5442 9.004,42.5442 C 9.004,42.5442 9.004,68.5642 9.004,68.5642 C 9.004,68.5642 0.397,68.5642 0.397,68.5642 C 0.397,68.5642 0.397,16.7202 0.397,16.7202 z "
         id="path34" />
    </g>
    <g
       transform="matrix(1.2146052,0,0,1.2145775,278.00493,114.78829)"
       style="fill:#ffffff;fill-rule:nonzero;stroke:none;stroke-width:1;stroke-linecap:butt;stroke-linejoin:miter;stroke-dasharray:none"
       id="g36">
      <path
         d="M 8.804,25.1312 C 8.804,35.6182 14.841,43.5332 23.348,43.5332 C 31.66,43.5332 37.892,35.7172 37.892,24.9322 C 37.892,16.8192 33.837,6.5302 23.547,6.5302 C 13.258,6.5302 8.804,16.0282 8.804,25.1312 z M 46.798,24.6352 C 46.798,42.3452 34.528,50.0622 22.953,50.0622 C 9.992,50.0622 0,40.5642 0,25.4272 C 0,9.3992 10.486,0 23.745,0 C 37.497,0 46.798,9.9932 46.798,24.6352 z "
         id="path38" />
    </g>
    <g
       transform="matrix(1.2146052,0,0,1.2145775,341.57616,102.17163)"
       style="fill:#ffffff;fill-rule:nonzero;stroke:none;stroke-width:1;stroke-linecap:butt;stroke-linejoin:miter;stroke-dasharray:none"
       id="g40">
      <path
         d="M 15.927,0 C 15.927,0 15.927,11.4765 15.927,11.4765 C 15.927,11.4765 28.393,11.4765 28.393,11.4765 C 28.393,11.4765 28.393,18.1059 28.393,18.1059 C 28.393,18.1059 15.927,18.1059 15.927,18.1059 C 15.927,18.1059 15.927,43.9279 15.927,43.9279 C 15.927,49.8639 17.61,53.2289 22.459,53.2289 C 24.833,53.2289 26.216,53.0299 27.505,52.6349 C 27.505,52.6349 27.899,59.1639 27.899,59.1639 C 26.216,59.8569 23.547,60.4499 20.181,60.4499 C 16.127,60.4499 12.861,59.0649 10.784,56.6909 C 8.309,54.1179 7.42,49.8639 7.42,44.2249 C 7.42,44.2249 7.42,18.1059 7.42,18.1059 C 7.42,18.1059 0,18.1059 0,18.1059 C 0,18.1059 0,11.4765 0,11.4765 C 0,11.4765 7.42,11.4765 7.42,11.4765 C 7.42,11.4765 7.42,2.6709 7.42,2.6709 C 7.42,2.6709 15.927,0 15.927,0 z "
         id="path42" />
    </g>
  </g>
</svg>
